<?xml version="1.0" standalone="no"?>
<!DOCTYPE svg PUBLIC "-//W3C//DTD SVG 20010904//EN"
 "http://www.w3.org/TR/2001/REC-SVG-20010904/DTD/svg10.dtd">
<svg version="1.0" xmlns="http://www.w3.org/2000/svg"
 width="1080.000000pt" height="1080.000000pt" viewBox="0 0 1080.000000 1080.000000"
 preserveAspectRatio="xMidYMid meet">

<g transform="translate(0.000000,1080.000000) scale(0.100000,-0.100000)"
fill="#000000" stroke="none">
<path d="M5100 10574 c-19 -2 -98 -9 -175 -14 -458 -35 -1007 -167 -1465 -352
-164 -66 -474 -216 -625 -303 -714 -409 -1331 -990 -1778 -1676 -451 -693
-730 -1480 -813 -2298 -22 -213 -29 -652 -15 -867 82 -1215 568 -2331 1403
-3217 743 -789 1730 -1330 2791 -1531 355 -67 595 -89 977 -89 474 0 854 47
1290 159 941 243 1758 722 2446 1434 616 638 1056 1427 1278 2290 155 607 200
1254 130 1880 -90 808 -381 1603 -837 2285 -196 294 -385 523 -647 785 -201
202 -346 328 -558 489 -789 596 -1751 952 -2752 1021 -132 9 -566 11 -650 4z
m860 -188 c1026 -132 1874 -496 2659 -1142 140 -116 503 -480 622 -624 378
-460 650 -924 846 -1445 358 -951 420 -1988 178 -2972 -300 -1217 -1036 -2266
-2085 -2971 -672 -450 -1439 -726 -2274 -817 -205 -23 -596 -30 -816 -16 -807
52 -1583 292 -2260 699 -241 145 -418 271 -650 461 -144 119 -508 482 -624
622 -654 794 -1035 1697 -1148 2714 -21 191 -18 871 5 1055 98 793 334 1469
734 2108 578 922 1430 1625 2448 2022 440 171 914 278 1435 324 25 2 216 2
425 1 275 -2 415 -8 505 -19z"/>
<path d="M4775 10123 c-43 -28 -133 -63 -163 -63 -10 0 -22 -3 -26 -7 -8 -9
70 -42 102 -42 31 -1 28 -13 -10 -36 -61 -36 -282 -266 -313 -326 -26 -51 -28
-59 -16 -88 29 -67 115 -108 126 -58 3 12 10 44 15 71 15 69 38 111 107 197
115 142 158 168 221 135 80 -41 79 -96 -3 -158 -47 -36 -49 -36 -78 -21 -38
19 -92 10 -111 -20 -18 -27 -30 -91 -22 -113 5 -12 16 -6 51 31 25 25 51 45
58 42 19 -6 20 -44 1 -92 -16 -42 -16 -46 0 -70 24 -36 10 -49 -74 -70 -38 -9
-76 -22 -86 -29 -48 -35 46 -48 150 -21 63 17 76 14 60 -13 -19 -30 -73 -60
-129 -73 -30 -7 -52 -15 -50 -19 2 -4 31 -15 64 -25 84 -25 140 -15 181 32 30
34 31 38 25 96 l-7 60 60 -6 c66 -7 92 5 92 43 0 29 -37 48 -107 56 -56 6 -61
5 -60 -12 2 -14 -5 -19 -23 -19 -29 0 -30 14 -8 115 l15 64 47 12 c58 15 83
36 95 82 20 71 -62 170 -155 188 -19 3 -34 10 -34 15 0 12 58 53 118 83 28 15
52 31 52 36 0 6 -9 19 -20 30 -29 29 -94 26 -145 -7z m0 -63 c-10 -11 -23 -20
-28 -20 -6 0 -2 9 8 20 10 11 23 20 28 20 6 0 2 -9 -8 -20z"/>
<path d="M4372 10118 c-36 -36 7 -166 66 -201 39 -23 52 -16 52 27 0 36 -19
79 -62 144 -31 45 -37 49 -56 30z"/>
<path d="M6132 10104 c-12 -8 -38 -39 -57 -69 -47 -74 -73 -89 -136 -82 -60 7
-79 1 -79 -25 0 -25 54 -47 98 -41 17 3 32 2 32 -2 0 -5 -16 -52 -36 -106
l-37 -98 -65 -22 c-51 -17 -78 -20 -128 -16 -63 6 -64 6 -79 -22 -8 -16 -26
-38 -41 -50 -59 -46 -3 -103 109 -111 l72 -5 50 -100 c63 -127 85 -137 85 -38
l0 68 43 -47 c40 -43 46 -46 110 -53 42 -5 84 -3 114 4 l46 12 51 -49 c80 -75
80 -76 115 -58 70 37 61 98 -26 174 l-55 49 16 71 c9 39 16 84 16 100 0 39
-32 78 -75 92 -64 21 -42 44 113 116 91 42 122 62 122 75 0 20 -31 43 -71 53
-14 3 -38 15 -52 26 -24 19 -27 28 -25 72 2 44 -1 53 -26 75 -41 35 -60 27
-64 -27 -2 -25 -20 -92 -40 -150 l-37 -105 -53 -8 c-41 -7 -52 -12 -52 -28 0
-11 -13 -25 -31 -34 -31 -16 -31 -16 -24 7 10 33 112 217 145 258 38 50 43 70
24 91 -21 23 -42 24 -72 3z m240 -161 c30 -34 40 -63 28 -78 -10 -12 -99 -40
-106 -32 -5 5 49 127 57 127 3 0 13 -8 21 -17z m-247 -203 c4 -6 16 -10 28 -8
17 2 21 -1 18 -17 -12 -69 -11 -121 3 -140 14 -20 15 -20 43 8 33 31 48 34 57
12 11 -30 -24 -142 -42 -133 -104 52 -182 79 -182 63 0 -4 27 -37 61 -72 33
-36 58 -70 56 -76 -4 -14 -64 -35 -100 -36 -39 -1 -81 23 -111 62 -25 32 -25
37 -15 93 13 73 22 89 72 139 22 22 51 57 65 78 26 38 36 44 47 27z"/>
<path d="M3277 9748 c-2 -7 11 -57 30 -111 19 -54 33 -101 30 -104 -3 -3 -16
2 -29 11 -48 34 -78 11 -78 -59 0 -29 3 -36 15 -31 17 6 35 -22 35 -53 0 -25
1 -25 -61 -5 -90 30 -111 8 -113 -117 -1 -55 -2 -57 -69 -129 -38 -39 -70 -70
-72 -68 -2 2 21 75 51 163 67 194 80 259 59 292 -39 59 -102 4 -85 -73 11 -47
-16 -196 -60 -335 -22 -68 -27 -96 -20 -114 16 -41 45 -31 97 35 26 33 50 55
52 48 2 -6 -7 -73 -20 -149 -26 -152 -23 -178 23 -212 26 -20 27 -20 59 -1 28
17 74 87 103 159 2 6 19 -7 38 -27 32 -34 73 -58 99 -58 19 0 7 29 -42 98 -28
40 -54 86 -59 102 -5 17 -5 80 0 143 14 189 23 213 65 167 17 -18 17 -27 6
-102 -6 -46 -18 -102 -27 -124 -15 -39 -15 -45 1 -78 12 -25 24 -36 39 -35 36
1 53 12 120 77 36 34 67 62 69 62 3 0 20 -26 37 -57 48 -85 115 -168 155 -193
20 -12 38 -20 41 -17 3 3 -2 27 -11 54 -9 26 -25 86 -36 133 -10 47 -30 127
-44 179 -14 52 -23 102 -20 110 3 9 30 42 60 73 30 31 55 61 55 67 0 14 -42
31 -75 31 -12 0 -61 20 -108 45 -70 37 -91 55 -116 93 -39 61 -67 87 -113 107
-45 18 -75 19 -81 3z m323 -331 c0 -5 -4 -5 -10 -2 -5 3 -10 14 -10 23 0 15 2
15 10 2 5 -8 10 -19 10 -23z m-215 2 c8 -23 1 -34 -14 -24 -13 8 -15 45 -2 45
5 0 13 -9 16 -21z m-195 -99 c0 -25 -10 -50 -21 -50 -10 0 -12 63 -3 73 11 10
24 -3 24 -23z m42 -123 c-9 -38 -22 -68 -27 -68 -6 0 -14 20 -19 46 -9 44 -8
47 25 81 41 43 45 32 21 -59z m228 45 c0 -11 -9 -27 -20 -37 -19 -18 -20 -17
-20 3 0 31 11 52 26 52 8 0 14 -8 14 -18z m-330 -81 c0 -5 -7 -12 -16 -15 -24
-9 -28 -7 -14 9 14 17 30 20 30 6z m46 -135 c9 -38 -24 -122 -41 -104 -7 7 18
128 27 128 4 0 10 -11 14 -24z"/>
<path d="M7675 9568 c-86 -125 -189 -258 -199 -258 -26 0 -82 23 -114 47 -17
13 -37 21 -42 18 -6 -3 -10 -28 -10 -54 0 -47 20 -81 48 -81 6 0 23 -5 37 -10
l26 -10 -22 -31 -22 -31 -13 32 -14 32 -62 -7 c-192 -21 -306 -81 -324 -172
-8 -40 21 -103 48 -103 20 0 87 31 129 61 28 20 139 52 148 44 2 -3 -9 -24
-25 -48 -45 -63 -57 -101 -50 -149 13 -88 37 -87 76 5 24 56 91 167 101 167
13 0 16 -39 8 -82 -24 -113 -24 -122 11 -151 22 -19 43 -27 69 -27 53 0 75 26
68 82 -2 24 2 71 11 104 15 58 15 63 -4 95 -19 31 -24 34 -70 34 -27 0 -50 5
-51 10 -1 6 15 35 37 66 l40 57 75 7 c41 3 103 4 137 0 79 -7 98 3 74 39 -9
14 -23 26 -30 26 -8 0 -26 14 -40 31 l-26 31 -6 -31 c-6 -30 -8 -31 -66 -31
l-59 0 51 74 c72 104 110 213 81 231 -6 3 -17 -5 -26 -17z m-335 -422 c0 -48
-9 -56 -61 -56 -27 0 -49 4 -49 9 0 12 80 70 98 71 6 0 12 -11 12 -24z"/>
<path d="M7820 9429 c0 -88 7 -108 45 -133 22 -14 29 -15 59 -2 67 28 64 58
-16 164 -29 37 -47 52 -64 52 -23 0 -24 -2 -24 -81z"/>
<path d="M5056 8940 c-461 -52 -823 -223 -1132 -535 -95 -96 -234 -269 -350
-436 -30 -43 -33 -45 -160 -83 -827 -246 -1353 -827 -1475 -1629 -29 -185 -31
-502 -6 -682 64 -453 231 -849 446 -1059 l50 -49 -6 -186 c-8 -265 19 -456 99
-698 217 -659 773 -1189 1445 -1379 241 -68 430 -90 683 -81 239 9 456 48 673
121 l69 23 104 -33 c117 -37 289 -77 409 -96 126 -19 507 -16 642 5 763 120
1415 647 1687 1365 99 261 143 548 125 822 l-8 126 65 69 c87 94 155 196 224
340 245 506 296 1146 135 1685 -196 657 -681 1115 -1415 1338 l-125 38 -87
125 c-327 464 -640 702 -1081 823 -213 59 -297 68 -632 71 -165 2 -335 -1
-379 -5z m704 -706 c368 -47 780 -191 1100 -384 684 -412 1168 -1091 1328
-1860 50 -241 57 -314 57 -605 0 -295 -9 -382 -67 -635 -187 -830 -755 -1548
-1522 -1925 -386 -190 -746 -279 -1171 -292 -303 -9 -542 17 -820 89 -371 96
-756 289 -1064 534 -127 102 -348 324 -449 451 -349 442 -562 972 -612 1523
-59 655 103 1296 465 1845 496 752 1310 1218 2235 1279 100 7 403 -5 520 -20z"/>
<path d="M5161 8139 c-893 -74 -1709 -601 -2160 -1396 -255 -450 -378 -991
-343 -1511 15 -214 31 -323 79 -507 274 -1073 1157 -1870 2263 -2042 165 -26
635 -25 800 1 776 122 1453 550 1878 1189 227 341 374 717 438 1127 26 165 27
635 1 800 -158 1013 -835 1840 -1792 2188 -360 130 -767 183 -1164 151z m671
-132 c244 -43 435 -101 645 -195 311 -140 546 -304 793 -551 296 -297 499
-621 631 -1011 92 -270 129 -483 136 -785 8 -319 -28 -579 -117 -859 -263
-820 -898 -1459 -1715 -1722 -288 -93 -546 -129 -870 -121 -292 6 -490 39
-750 124 -403 131 -743 341 -1050 648 -399 399 -643 870 -741 1431 -26 147
-28 179 -29 424 0 172 5 296 13 355 92 614 354 1133 779 1545 238 231 475 393
773 526 219 98 496 175 725 203 50 6 101 13 115 15 14 3 135 3 270 1 210 -2
266 -6 392 -28z"/>
<path d="M5036 7832 c43 -26 111 -71 149 -100 90 -68 286 -244 329 -294 l34
-39 -19 68 c-28 98 -25 148 8 179 47 43 191 73 363 74 124 2 105 8 -177 64
-294 58 -581 96 -719 96 l-47 0 79 -48z"/>
<path d="M5842 7468 c10 -7 45 -29 79 -48 35 -19 97 -69 139 -111 224 -221
307 -475 280 -853 -37 -517 -270 -959 -711 -1352 -273 -243 -541 -419 -974
-641 -132 -67 -237 -123 -233 -123 4 0 44 14 89 30 336 124 717 342 1054 602
162 125 413 377 491 493 182 269 288 547 330 868 17 132 15 444 -5 522 -5 22
-8 41 -6 43 8 8 75 -140 108 -239 50 -149 68 -252 74 -429 19 -571 -236 -1104
-816 -1704 l-86 -89 60 45 c183 139 413 396 577 647 276 422 377 860 302 1311
-33 200 -136 454 -251 618 -64 91 -35 67 57 -49 301 -378 480 -813 480 -1171
0 -291 -127 -753 -324 -1174 -63 -134 -46 -120 43 36 80 140 171 332 216 455
40 108 95 314 117 435 20 116 17 425 -6 529 -80 370 -284 738 -559 1014 -88
88 -69 84 64 -14 371 -274 622 -584 762 -939 128 -327 152 -720 71 -1170 -21
-116 -87 -372 -130 -503 -20 -60 -34 -110 -32 -113 7 -7 112 267 153 398 96
310 135 673 104 956 -65 593 -356 1050 -899 1411 -186 123 -426 246 -610 312
-21 8 -23 7 -8 -3z"/>
<path d="M3550 6140 c0 -20 -80 -97 -120 -115 -39 -18 -40 -19 -40 -72 0 -41
3 -53 15 -53 19 0 91 36 100 50 19 30 25 -6 27 -167 l3 -178 63 -3 62 -3 0
276 0 275 -55 0 c-31 0 -55 -4 -55 -10z"/>
<path d="M3954 6136 c-84 -37 -120 -165 -74 -260 30 -63 76 -90 141 -84 27 3
57 12 67 22 10 9 22 16 26 16 13 0 -4 -92 -20 -118 -20 -31 -74 -27 -89 6 -10
24 -14 24 -107 6 -34 -7 -34 -12 -5 -55 30 -46 80 -69 147 -69 141 1 210 91
210 275 0 137 -41 230 -117 261 -41 18 -139 17 -179 0z m138 -93 c25 -23 26
-123 1 -146 -37 -32 -85 -22 -103 24 -14 33 -8 102 10 124 17 20 69 19 92 -2z"/>
<path d="M4415 6138 c-14 -42 -42 -274 -33 -279 6 -4 30 -9 55 -13 35 -5 50
-2 72 15 36 26 68 22 94 -13 39 -53 14 -158 -40 -166 -25 -4 -73 34 -73 58 0
15 -6 17 -42 13 -99 -10 -104 -16 -65 -74 44 -67 169 -100 254 -68 99 37 145
177 90 273 -40 71 -96 92 -188 73 l-36 -7 6 37 6 38 108 3 107 3 0 59 0 60
-155 0 c-116 0 -157 -3 -160 -12z"/>
<path d="M4948 6129 c-71 -37 -92 -139 -42 -199 l27 -31 -25 -27 c-37 -39 -48
-65 -48 -112 0 -54 24 -105 63 -132 37 -26 164 -37 220 -19 105 35 139 172 65
257 l-31 35 21 22 c34 36 46 80 33 120 -13 39 -54 81 -94 96 -47 18 -147 13
-189 -10z m143 -80 c17 -17 20 -29 15 -57 -6 -40 -19 -52 -58 -52 -46 0 -66
73 -31 112 21 24 48 23 74 -3z m9 -226 c17 -22 21 -37 17 -66 -7 -49 -23 -67
-60 -67 -45 0 -67 25 -67 77 0 78 66 111 110 56z"/>
<path d="M6480 4520 c-6 -11 -8 -20 -6 -20 3 0 10 9 16 20 6 11 8 20 6 20 -3
0 -10 -9 -16 -20z"/>
<path d="M4810 4384 c-95 -12 -205 -40 -305 -76 -312 -115 -531 -159 -867
-174 l-156 -7 -52 -59 c-29 -33 -70 -72 -91 -88 l-38 -27 88 -7 c117 -9 468
10 661 35 85 11 220 29 300 39 439 57 677 45 806 -43 66 -44 96 -103 92 -180
l-3 -57 160 0 160 0 0 63 c0 81 26 131 89 174 134 91 360 101 851 37 105 -13
242 -31 304 -39 162 -20 531 -37 626 -28 l80 8 -37 23 c-21 13 -62 52 -93 86
l-55 63 -157 7 c-337 15 -555 59 -868 174 -153 56 -256 76 -400 76 -172 1
-271 -32 -365 -120 -48 -45 -104 -144 -116 -203 -4 -17 -12 -31 -19 -31 -7 0
-15 14 -19 31 -19 98 -113 222 -202 267 -89 45 -257 70 -374 56z"/>
<path d="M2012 8768 c-126 -61 -241 -311 -229 -500 4 -72 7 -82 46 -133 27
-35 72 -76 129 -114 80 -54 132 -103 237 -223 60 -69 125 -78 125 -18 0 24 4
30 21 30 11 0 29 5 39 10 22 12 86 105 112 161 13 30 27 40 89 66 70 29 76 34
103 87 35 67 40 138 14 179 -10 14 -88 86 -173 159 -85 73 -188 161 -228 196
-78 68 -175 122 -216 122 -14 -1 -45 -10 -69 -22z m155 -121 c116 -71 319
-232 381 -302 45 -51 50 -72 31 -136 -12 -37 -59 -94 -59 -71 0 24 -18 11 -35
-27 -12 -28 -28 -44 -56 -56 -43 -20 -51 -35 -18 -35 17 0 19 -4 13 -22 -20
-64 -88 -138 -127 -138 -24 0 -170 136 -249 233 -47 56 -48 81 -7 167 l30 64
21 -32 c18 -29 19 -37 8 -100 -15 -81 -6 -107 41 -117 23 -5 38 -2 59 13 l28
21 6 -32 c10 -53 32 -77 71 -77 42 0 56 19 90 118 28 80 43 242 26 285 -15 40
-62 37 -128 -8 -29 -19 -58 -35 -65 -35 -7 0 -22 -7 -32 -15 -24 -19 -36 -19
-36 -2 0 24 -70 97 -94 97 -58 0 -105 -78 -106 -174 l0 -59 -25 23 c-42 40
-58 98 -53 197 3 68 10 101 30 143 33 71 98 140 129 140 13 -1 70 -29 126 -63z
m163 -302 c7 -9 10 -25 6 -41 l-7 -26 -34 35 c-19 20 -35 38 -35 42 0 12 58 4
70 -10z m-120 -96 c0 -6 -4 -7 -10 -4 -5 3 -10 11 -10 16 0 6 5 7 10 4 6 -3
10 -11 10 -16z m-56 -75 c10 -27 7 -44 -9 -44 -10 0 -15 10 -15 30 0 32 14 40
24 14z"/>
<path d="M8742 8628 c-7 -7 -12 -17 -12 -23 0 -48 -167 -205 -217 -205 -35 0
-120 84 -135 131 -16 54 -43 53 -58 -3 -18 -64 -5 -107 47 -156 25 -24 41 -47
37 -52 -38 -33 -157 -39 -211 -10 -21 11 -50 20 -65 20 -25 0 -28 -3 -28 -36
0 -26 8 -43 30 -66 31 -30 31 -30 123 -26 78 3 103 9 161 36 37 18 77 32 87
32 20 0 85 -30 212 -98 82 -44 105 -50 125 -30 19 19 15 33 -28 99 -22 34 -42
77 -46 95 -8 43 -20 36 -28 -16 -3 -22 -12 -40 -19 -40 -16 0 -107 58 -107 68
0 4 12 15 28 24 43 26 122 99 154 142 34 47 35 75 5 104 -27 25 -38 27 -55 10z"/>
<path d="M8370 8090 c0 -36 -8 -67 -30 -110 -43 -86 -41 -106 16 -131 93 -41
129 -3 129 136 0 119 -14 149 -73 153 l-42 3 0 -51z"/>
<path d="M1408 7517 c-32 -26 -56 -76 -78 -162 -13 -49 -25 -92 -27 -94 -1 -2
-25 8 -52 22 -27 15 -58 27 -70 27 -30 0 -88 -31 -136 -73 -33 -29 -38 -39
-30 -54 6 -10 63 -44 128 -76 l117 -58 0 -87 c0 -48 2 -96 5 -107 4 -15 -4
-25 -28 -40 -71 -45 -32 -93 95 -116 97 -17 169 0 222 52 22 23 48 39 61 39
13 0 32 11 42 23 l18 24 119 -18 c65 -9 125 -15 133 -12 17 7 -109 130 -184
179 -28 18 -54 42 -57 51 -18 64 -27 143 -24 219 3 83 2 89 -18 92 -24 4 -70
-30 -94 -71 l-19 -30 -6 39 c-9 55 -34 148 -51 189 -17 42 -45 59 -66 42z m42
-181 c24 -54 51 -178 41 -189 -4 -4 -29 7 -55 24 l-49 30 6 62 c6 62 21 117
32 117 4 0 15 -20 25 -44z m7 -381 c52 -26 74 -42 83 -64 18 -44 6 -54 -53
-47 -66 9 -83 19 -96 57 -10 29 -15 89 -8 89 2 0 35 -16 74 -35z"/>
<path d="M9537 7446 c-21 -8 -47 -22 -57 -31 -25 -23 -53 -83 -46 -101 8 -21
58 -17 92 9 54 41 113 109 107 123 -6 17 -46 17 -96 0z"/>
<path d="M9072 7362 c-50 -39 -78 -111 -50 -128 6 -4 50 -8 98 -8 86 -1 90 -2
201 -58 63 -31 131 -71 152 -88 34 -29 37 -36 37 -81 0 -40 -5 -55 -25 -74
-35 -35 -65 -31 -124 17 -50 40 -52 44 -46 79 8 46 -16 96 -48 105 -34 8 -110
1 -113 -11 -2 -5 17 -22 42 -37 44 -27 63 -52 49 -66 -4 -4 -34 -6 -68 -5 -54
2 -65 0 -88 -23 l-27 -25 -20 33 c-11 18 -27 51 -36 73 -18 41 -43 75 -58 75
-19 0 -7 -88 22 -148 34 -73 36 -82 15 -82 -24 0 -73 51 -104 109 -31 58 -39
54 -42 -24 -3 -62 18 -120 52 -149 35 -30 71 -33 124 -10 46 19 55 10 55 -57
0 -52 16 -72 52 -67 32 4 50 44 43 98 -9 67 -14 80 -30 73 -20 -7 -31 26 -14
41 10 9 37 11 90 8 l76 -4 32 -53 c36 -59 45 -65 98 -65 71 0 131 73 148 178
4 23 11 42 17 42 5 0 37 -29 71 -65 34 -36 67 -65 74 -65 21 0 36 41 30 82 -4
29 -18 52 -52 89 -25 27 -57 74 -70 103 -13 30 -28 57 -33 60 -10 6 -22 -48
-22 -103 l0 -33 -35 31 c-55 48 -241 170 -315 207 -87 43 -128 50 -158 26z
m588 -302 c8 -5 11 -12 7 -16 -4 -4 -15 0 -24 9 -18 18 -8 23 17 7z"/>
<path d="M1250 5338 c0 -15 -4 -29 -9 -32 -5 -4 -69 -11 -143 -17 -73 -6 -144
-16 -158 -22 -42 -20 -63 -78 -55 -152 7 -73 30 -110 81 -131 25 -11 59 -12
164 -4 73 5 137 7 141 4 5 -3 9 -11 9 -19 0 -8 3 -16 8 -18 4 -3 5 25 3 61 -3
37 -6 57 -8 45 -3 -12 -10 -27 -18 -33 -11 -9 -187 -29 -262 -30 -63 0 -108
111 -77 190 9 21 23 41 32 45 20 8 192 24 255 25 44 0 47 -2 47 -25 0 -14 4
-25 9 -25 10 0 2 129 -10 150 -6 11 -8 8 -9 -12z"/>
<path d="M9748 5228 c-3 -8 -36 -11 -111 -9 l-106 2 -21 -33 c-24 -39 -25 -66
-6 -113 11 -26 21 -35 38 -34 l23 0 -22 11 c-56 27 -31 128 32 128 21 0 24 -6
30 -62 11 -95 67 -142 122 -103 33 23 39 69 14 109 -26 41 -26 46 -1 46 16 0
20 7 20 35 0 35 -5 45 -12 23z m-40 -76 c19 -25 26 -63 15 -81 -6 -9 -24 -17
-41 -19 -25 -3 -33 2 -46 25 -8 16 -18 46 -21 67 l-8 38 44 -7 c24 -4 50 -14
57 -23z"/>
<path d="M9720 4920 c-14 -16 -23 -17 -97 -8 -99 13 -128 7 -148 -32 -20 -39
-19 -70 5 -100 26 -34 25 -43 -5 -36 -21 5 -25 3 -24 -16 1 -31 17 -78 18 -56
2 27 17 30 99 18 118 -16 122 -18 123 -43 1 -12 7 7 14 43 13 64 13 91 0 51
-7 -24 -40 -27 -125 -11 -69 13 -90 32 -90 81 0 30 6 42 25 55 22 14 35 15
106 4 45 -6 87 -14 94 -16 9 -4 15 8 20 36 8 49 5 54 -15 30z"/>
<path d="M1138 4868 c-3 -24 -25 -32 -129 -47 -59 -8 -65 -7 -80 11 -15 20
-16 18 -8 -28 4 -27 9 -58 9 -69 2 -17 3 -16 9 4 5 20 17 27 61 37 87 21 136
18 154 -8 22 -31 20 -74 -3 -97 -20 -20 -38 -25 -141 -39 -34 -4 -55 -12 -54
-20 1 -6 2 -27 3 -44 l1 -33 13 25 c10 20 23 27 67 33 142 21 160 33 160 107
0 34 -6 48 -30 70 -30 28 -30 40 2 40 18 0 18 2 -2 40 -23 46 -27 48 -32 18z"/>
<path d="M9294 4595 c-8 -20 13 -45 32 -38 8 3 14 16 14 29 0 17 -6 24 -20 24
-11 0 -23 -7 -26 -15z"/>
<path d="M9421 4535 c0 -43 2 -47 11 -27 14 27 30 27 133 -2 67 -19 80 -26 85
-47 5 -19 9 -11 18 35 16 78 15 82 -5 57 l-18 -21 -112 28 -113 28 1 -51z"/>
<path d="M1208 4512 c-4 -14 -26 -24 -91 -40 -107 -27 -116 -27 -127 1 -12 31
-12 0 1 -48 17 -67 21 -73 28 -45 6 22 18 27 113 50 59 14 110 28 113 31 3 4
-3 21 -13 38 -17 28 -20 29 -24 13z"/>
<path d="M1322 4508 c2 -15 11 -24 26 -26 20 -3 23 0 20 20 -2 15 -11 24 -26
26 -20 3 -23 0 -20 -20z"/>
<path d="M9379 4371 c-32 -32 -35 -54 -14 -118 10 -30 -2 -30 -95 2 -40 14
-74 24 -75 22 -1 -1 -5 -22 -9 -47 -5 -41 -5 -43 9 -26 14 18 17 18 82 2 37
-9 114 -31 170 -48 93 -28 102 -33 105 -57 3 -21 7 -14 21 32 10 33 16 64 13
70 -2 7 -5 5 -5 -4 -1 -9 -7 -19 -14 -22 -19 -7 -168 38 -178 54 -16 25 -10
85 9 102 25 23 56 21 142 -8 40 -14 75 -25 77 -25 4 0 17 34 27 70 l7 25 -18
-23 -19 -23 -64 20 c-122 37 -135 37 -171 2z"/>
<path d="M1261 4354 c-1 -14 -34 -46 -101 -99 -110 -85 -127 -115 -65 -115 64
0 220 -31 239 -48 18 -16 18 -16 11 8 -14 44 -24 70 -29 70 -3 0 -3 -7 1 -17
6 -15 -3 -16 -92 -10 -54 4 -102 10 -106 14 -8 8 132 123 150 123 6 0 15 -8
21 -17 15 -24 3 40 -15 82 -11 24 -14 26 -14 9z"/>
<path d="M9162 4112 c-17 -26 -38 -74 -47 -106 -15 -51 -16 -67 -5 -113 32
-146 211 -202 324 -103 55 48 102 188 81 237 -6 13 -10 2 -15 -37 -9 -75 -36
-127 -83 -161 -74 -54 -175 -44 -245 24 -64 61 -63 154 1 232 25 31 34 36 59
31 35 -7 29 8 -12 29 -28 14 -28 14 -58 -33z"/>
<path d="M1225 3987 c-54 -30 -80 -82 -66 -134 11 -42 65 -112 76 -101 4 4 -4
21 -19 38 -37 44 -35 92 4 132 17 16 35 28 41 26 6 -2 27 -41 46 -86 l36 -82
31 18 c69 40 72 116 6 176 -48 43 -94 47 -155 13z m155 -27 c10 -5 21 -24 25
-41 6 -25 2 -36 -21 -60 -15 -16 -33 -29 -39 -29 -18 0 -65 123 -51 132 16 11
64 10 86 -2z"/>
<path d="M1455 3748 c7 -27 4 -29 -80 -68 -98 -45 -110 -47 -125 -22 -9 14
-10 14 -5 -6 9 -33 45 -112 51 -112 2 0 2 11 -2 25 -5 20 0 28 28 45 18 11 55
27 81 36 44 15 50 15 73 -1 20 -13 25 -23 21 -42 -4 -21 -2 -24 17 -19 11 3
24 6 29 6 4 0 7 9 7 20 0 15 -13 27 -47 42 l-48 21 28 10 c15 6 27 13 27 16
-1 3 -14 22 -31 41 -30 34 -30 35 -24 8z"/>
<path d="M8902 3564 c-10 -17 1 -82 18 -114 5 -10 26 -28 45 -40 22 -14 35
-29 35 -43 0 -20 1 -20 13 -2 13 17 18 15 98 -32 76 -45 84 -52 82 -78 -2 -22
6 -12 32 40 40 79 42 86 16 54 l-19 -24 -69 33 c-115 57 -116 57 -97 93 8 17
12 34 8 37 -4 4 -9 1 -11 -5 -3 -7 -12 -22 -21 -33 l-17 -21 -47 30 c-51 33
-63 66 -33 91 13 11 13 15 3 21 -19 12 -26 11 -36 -7z"/>
<path d="M1499 3499 c-16 -16 -20 -28 -14 -53 16 -74 17 -106 5 -121 -19 -23
-56 -18 -79 11 -32 41 -35 63 -12 95 l21 28 -30 -11 c-17 -5 -32 -13 -35 -18
-8 -13 49 -113 76 -133 33 -24 83 -15 105 18 13 20 13 30 1 83 -9 37 -10 66
-5 76 13 23 65 21 78 -3 14 -27 13 -74 -2 -90 -11 -11 -10 -13 5 -7 10 3 23 6
28 6 27 0 -10 97 -49 128 -24 19 -70 14 -93 -9z"/>
<path d="M1796 3331 c-11 -18 6 -42 28 -39 29 4 29 42 -1 46 -11 2 -24 -1 -27
-7z"/>
<path d="M1685 3290 c6 -24 -1 -29 -79 -73 -46 -26 -89 -47 -95 -47 -5 0 -15
8 -20 18 -21 35 -10 0 14 -48 26 -52 47 -73 38 -40 -7 25 9 39 89 80 32 17 71
38 88 48 l30 19 -36 34 c-34 33 -35 33 -29 9z"/>
<path d="M8945 3273 c-59 -15 -112 -103 -96 -160 15 -52 30 -72 71 -93 57 -29
111 -26 148 8 77 72 53 197 -45 238 -33 14 -44 15 -78 7z m70 -57 c47 -20 85
-63 85 -96 0 -30 -28 -65 -61 -75 -31 -10 -102 13 -140 45 -27 22 -33 34 -33
65 0 67 68 95 149 61z"/>
<path d="M1838 3146 c-32 -18 -40 -19 -58 -8 -19 11 -20 11 -14 -12 5 -21 -3
-29 -70 -72 -41 -27 -78 -57 -82 -68 -8 -24 26 -70 55 -74 l23 -4 -21 21 c-12
12 -18 27 -15 36 4 9 38 36 77 61 l71 46 28 -33 c31 -38 36 -33 12 12 -18 35
-10 50 36 69 34 14 38 25 13 39 -13 6 -29 3 -55 -13z"/>
<path d="M1886 2992 c5 -15 -14 -56 -62 -141 -65 -115 -69 -120 -110 -130 -65
-17 -83 -14 -94 14 -6 16 -14 23 -25 19 -23 -9 -18 -32 11 -50 29 -19 0 -24
288 50 77 20 148 34 159 30 17 -5 16 -2 -8 30 -31 40 -39 45 -30 17 5 -17 -4
-23 -72 -44 -99 -32 -119 -35 -116 -20 1 6 23 46 48 87 44 72 67 91 78 64 3
-7 6 -8 6 -3 0 6 -17 30 -39 55 -28 31 -38 38 -34 22z"/>
<path d="M8608 2818 c-31 -40 -36 -57 -13 -38 10 8 19 9 25 4 13 -14 91 -166
87 -170 -2 -2 -44 9 -93 26 -49 16 -91 30 -93 30 -2 0 -1 11 1 25 3 14 5 25 4
25 -1 0 -18 -20 -39 -44 -24 -30 -31 -43 -19 -40 9 2 73 -16 142 -40 117 -41
126 -46 147 -82 29 -50 30 -98 3 -110 -13 -6 -17 -13 -11 -23 7 -10 13 -11 30
-2 38 21 27 67 -58 248 -44 93 -81 182 -83 198 l-3 29 -27 -36z"/>
<path d="M8409 2565 c-14 -14 -40 -33 -59 -43 -74 -38 -99 -125 -50 -177 21
-22 31 -26 63 -22 35 5 37 4 37 -23 0 -32 20 -53 43 -44 13 5 16 -2 14 -36 -2
-35 2 -46 24 -62 23 -18 31 -19 61 -9 99 33 150 161 92 230 -41 49 -72 43
-129 -25 -34 -40 -53 -54 -69 -52 -30 4 -31 30 -2 73 33 48 34 94 1 133 -22
26 -23 30 -8 44 8 9 14 21 12 27 -3 7 -15 0 -30 -14z m9 -101 c41 -47 18 -104
-44 -104 -24 0 -39 8 -58 31 -33 38 -33 53 0 85 30 31 67 27 102 -12z m206
-126 c30 -42 15 -107 -34 -145 -25 -20 -77 -15 -100 9 -30 33 -25 63 21 113
48 52 87 60 113 23z"/>
<path d="M2225 2486 c-47 -21 -86 -69 -91 -112 -13 -103 110 -179 206 -129 34
18 70 81 70 122 0 43 -36 92 -83 113 -50 23 -62 24 -102 6z m139 -55 c25 -43
15 -75 -43 -133 -54 -54 -96 -63 -131 -28 -39 39 -16 129 44 175 57 42 99 38
130 -14z"/>
<path d="M2596 2350 c-16 -5 -41 -21 -57 -35 -20 -20 -33 -25 -51 -20 -22 6
-22 5 -4 -9 18 -15 17 -17 -22 -63 -22 -26 -54 -61 -71 -78 -28 -26 -34 -28
-54 -17 -12 7 3 -9 33 -37 30 -27 57 -48 59 -46 2 2 -4 11 -13 21 -16 15 -15
19 10 53 15 20 45 55 67 78 l40 42 29 -21 c39 -27 51 -12 13 18 l-30 23 40 41
c43 44 76 51 98 20 13 -19 15 -19 28 -4 28 34 -43 55 -115 34z"/>
<path d="M8102 2289 c-102 -66 -71 -228 49 -254 39 -9 109 25 132 64 21 36 22
102 2 141 -36 69 -117 91 -183 49z m99 -32 c43 -29 79 -82 79 -117 0 -34 -34
-70 -66 -70 -41 0 -89 26 -122 66 -39 47 -41 86 -7 119 31 31 72 32 116 2z"/>
<path d="M7800 2233 c0 -6 -12 -25 -26 -42 -14 -17 -21 -31 -15 -31 5 0 13 5
16 10 3 6 10 10 16 10 14 0 219 -262 219 -280 0 -9 -6 -22 -12 -30 -15 -16 35
19 77 55 l30 25 -31 -6 c-29 -5 -34 -1 -130 121 -129 166 -143 182 -144 168z"/>
<path d="M2888 2095 c-33 -18 -58 -63 -58 -102 0 -21 15 -41 62 -85 72 -68 81
-104 34 -145 -46 -39 -107 -25 -160 37 -28 34 -33 59 -14 78 6 6 9 15 5 19 -7
6 -27 -14 -47 -48 -19 -34 110 -129 175 -129 65 0 125 53 125 110 0 12 -28 50
-65 90 -37 39 -65 78 -65 90 0 12 11 32 25 45 33 34 84 33 124 -1 44 -37 53
-57 40 -91 l-10 -28 25 24 c14 14 26 28 26 32 0 15 -63 80 -90 94 -44 23 -101
27 -132 10z"/>
<path d="M7692 1971 c-90 -57 -95 -164 -12 -235 72 -60 184 -11 205 91 8 41
-23 115 -59 138 -41 27 -96 29 -134 6z m73 -25 c43 -18 95 -89 95 -129 0 -42
-35 -77 -76 -77 -50 0 -124 72 -131 127 -6 46 5 69 42 83 28 12 31 12 70 -4z"/>
<path d="M3420 1805 c-17 -20 -5 -45 20 -45 11 0 23 7 26 15 6 15 -11 45 -26
45 -4 0 -13 -7 -20 -15z"/>
<path d="M3056 1778 c-47 -47 -61 -101 -38 -147 22 -45 58 -70 107 -76 l40 -5
-35 16 c-50 23 -69 42 -76 80 -8 44 10 94 46 129 24 23 34 26 64 21 45 -9 78
-49 69 -85 l-6 -26 22 27 c27 33 26 39 -4 68 -20 19 -40 25 -90 28 -63 4 -66
3 -99 -30z"/>
<path d="M7409 1781 c-16 -16 -29 -36 -29 -45 0 -11 7 -9 25 9 29 29 75 33 97
8 9 -10 32 -51 52 -90 20 -40 38 -73 40 -73 1 0 17 7 34 16 38 18 54 39 24 30
-22 -7 -42 16 -81 92 -32 62 -55 82 -97 82 -26 0 -43 -8 -65 -29z"/>
<path d="M7308 1715 c-34 -30 -34 -31 -2 -30 22 0 32 -12 72 -88 46 -85 46
-88 28 -102 -33 -25 -4 -16 52 15 28 17 52 32 52 33 0 2 -12 3 -26 2 -23 0
-32 10 -66 75 -42 80 -67 120 -77 120 -3 0 -18 -12 -33 -25z"/>
<path d="M6942 1705 c-47 -33 -50 -37 -20 -30 27 7 29 4 94 -131 83 -174 87
-187 65 -208 -15 -16 -15 -17 3 -10 11 4 40 18 65 30 44 22 45 23 16 23 -27 1
-33 7 -63 74 -17 39 -32 78 -32 85 0 7 -5 18 -11 25 -6 7 -27 47 -47 89 l-37
77 -33 -24z"/>
<path d="M3333 1697 c24 -20 22 -32 -26 -122 -37 -70 -45 -80 -67 -78 -18 2
-8 -7 35 -32 32 -19 62 -32 65 -29 2 3 -3 10 -13 15 -9 6 -17 15 -17 22 0 7
24 58 53 114 l54 101 -26 6 c-14 3 -37 8 -51 12 -23 5 -24 4 -7 -9z"/>
<path d="M7123 1640 c-19 -8 -43 -38 -43 -55 0 -3 13 2 29 11 50 30 77 14 117
-69 18 -39 34 -77 34 -85 0 -21 26 -25 59 -7 35 18 41 30 11 20 -18 -6 -26 5
-60 78 -21 46 -46 91 -55 101 -18 17 -57 20 -92 6z"/>
<path d="M3504 1590 c-37 -15 -67 -69 -72 -127 -4 -46 -1 -58 19 -80 40 -43
137 -71 153 -44 3 5 -9 9 -28 9 -42 0 -80 25 -96 62 -14 34 -5 90 15 90 7 0
46 -16 87 -35 67 -33 74 -34 86 -18 19 27 15 86 -9 112 -36 39 -103 52 -155
31z m117 -18 c25 -21 30 -71 10 -96 -11 -14 -20 -12 -72 15 l-59 29 15 29 c23
45 67 54 106 23z"/>
<path d="M6845 1513 c-16 -8 -45 -34 -64 -56 -30 -38 -32 -46 -27 -87 7 -54
31 -88 78 -114 31 -17 41 -18 75 -8 42 13 93 47 93 63 0 5 -15 0 -32 -11 -67
-40 -133 -15 -169 64 -24 53 -24 59 7 95 21 25 34 31 64 31 27 0 42 -6 49 -17
14 -26 19 -13 9 25 -10 37 -33 41 -83 15z"/>
<path d="M3740 1501 c0 -6 7 -11 15 -11 20 0 20 -6 -16 -116 -29 -90 -32 -96
-54 -91 -41 7 -18 -10 34 -27 60 -19 70 -20 47 -3 -18 13 -18 17 8 95 15 44
33 86 41 92 26 22 77 15 101 -13 25 -29 22 -60 -16 -160 -11 -28 -20 -55 -20
-59 0 -6 56 -28 73 -28 6 0 2 6 -9 14 -19 14 -18 16 10 98 33 96 32 133 -5
160 -29 22 -56 25 -106 13 -29 -7 -31 -5 -26 14 4 17 1 21 -20 21 -14 0 -32 3
-41 6 -9 3 -16 1 -16 -5z"/>
<path d="M6211 1454 c-79 -18 -146 -35 -148 -38 -2 -2 -1 -16 3 -30 l6 -27 12
22 c7 15 27 27 61 35 27 7 50 12 51 11 5 -8 74 -316 74 -330 0 -11 -9 -21 -20
-24 -11 -3 -20 -10 -20 -15 0 -5 8 -7 18 -4 9 3 40 10 67 17 28 6 55 16 60 21
7 7 3 8 -11 4 -13 -4 -26 -1 -33 8 -14 16 -81 275 -81 311 0 19 8 26 38 34 57
16 72 14 83 -15 13 -35 17 -28 11 19 -2 20 -9 36 -16 36 -6 -1 -76 -16 -155
-35z"/>
<path d="M6544 1401 c-44 -27 -64 -59 -64 -104 0 -81 52 -147 116 -147 46 0
112 28 125 53 11 20 11 20 -24 -1 -47 -30 -98 -29 -130 3 -45 46 -41 60 22 80
31 9 70 23 88 30 31 13 32 15 22 45 -21 60 -93 79 -155 41z m88 -18 c9 -10 19
-28 22 -40 6 -20 1 -24 -49 -38 -31 -9 -63 -14 -71 -11 -19 7 -18 65 3 88 21
23 75 24 95 1z"/>
<path d="M5700 1380 c-39 -13 -42 -15 -19 -18 24 -3 27 -8 33 -59 4 -31 4 -58
1 -61 -3 -3 -25 -5 -49 -3 -24 1 -47 -2 -51 -8 -4 -7 6 -11 28 -11 57 0 78
-25 84 -100 4 -56 2 -69 -17 -92 -23 -30 -65 -37 -101 -18 -50 27 -66 136 -27
185 21 27 21 27 1 16 -56 -29 -79 -107 -54 -174 28 -72 114 -91 166 -37 30 31
45 31 45 -2 0 -14 5 -18 16 -14 9 3 28 6 42 7 26 0 26 1 5 9 -25 10 -25 13
-45 245 l-13 150 -45 -15z"/>
<path d="M4127 1370 c-40 -12 -58 -29 -79 -77 -20 -44 -17 -103 5 -131 31 -39
123 -64 157 -42 11 7 5 10 -23 10 -31 0 -46 7 -74 35 -33 33 -35 39 -31 86 9
92 66 131 137 94 23 -11 31 -23 31 -43 1 -29 11 -18 24 24 12 40 -75 65 -147
44z"/>
<path d="M4409 1311 c-68 -21 -99 -66 -99 -144 0 -59 33 -100 92 -115 46 -11
94 -6 105 11 4 6 -3 8 -19 4 -35 -9 -95 10 -113 36 -8 12 -15 38 -15 59 0 44
3 45 95 22 77 -20 95 -15 95 25 0 48 -20 79 -62 95 -42 18 -42 18 -79 7z m84
-33 c20 -24 23 -76 3 -84 -7 -3 -37 1 -67 9 -65 16 -73 35 -30 78 34 34 62 33
94 -3z"/>
<path d="M4913 1225 c-24 -10 -33 -20 -32 -37 l0 -23 11 23 c27 55 128 30 128
-33 0 -17 -7 -25 -22 -28 l-23 -4 23 -2 c22 -1 23 -4 17 -43 -9 -54 -19 -66
-61 -74 -42 -8 -64 8 -64 46 0 31 15 47 57 61 24 8 21 8 -16 5 -76 -8 -113
-75 -67 -121 30 -30 55 -31 98 -5 41 25 48 25 48 1 0 -14 9 -20 35 -23 19 -2
35 0 35 4 0 4 -4 8 -10 8 -6 0 -10 43 -10 109 0 106 -1 110 -26 130 -31 24
-75 26 -121 6z"/>
<path d="M5190 1214 c-25 -7 -38 -12 -29 -13 35 -2 41 -26 34 -126 -7 -86 -10
-98 -29 -105 -14 -6 1 -9 49 -8 39 0 60 3 48 5 -22 4 -23 9 -23 97 0 76 3 96
18 109 31 28 65 30 96 6 27 -21 27 -23 24 -120 l-3 -99 45 1 c38 0 42 2 21 10
-22 9 -23 14 -21 87 2 42 2 89 1 104 -2 57 -95 80 -148 38 l-28 -22 -5 24 c-5
24 -6 24 -50 12z"/>
</g>
</svg>
